<svg width="330" height="112" viewBox="0 0 330 112" fill="none" xmlns="http://www.w3.org/2000/svg">
<g clip-path="url(#clip0)">
<path d="M24.4657 5.66439L0.0234833 107.623H75.6314C75.6314 107.623 85.0884 97.0936 75.6314 79.361H39.9156L59.5056 5.66439C59.5056 5.66439 43.3797 -7.08338 24.4657 5.66439Z" fill="#FFFBFD"/>
<path d="M166.249 76.7512C172.399 48.5918 161.27 37.0166 161.035 36.6138C136.756 9.5548 105.421 36.6138 105.421 36.6138C92.5786 48.0386 91.0035 69.331 91.0035 69.331C88.3842 96.6485 107.564 106.564 107.678 106.612C140.63 122.246 159.647 99.156 160.963 97.4904C160.986 97.4624 160.998 97.4274 160.998 97.3912C160.998 97.355 160.986 97.3199 160.963 97.2919L150.431 83.4197C150.415 83.4018 150.396 83.3875 150.374 83.3776C150.352 83.3678 150.328 83.3627 150.305 83.3627C150.281 83.3627 150.257 83.3678 150.235 83.3776C150.213 83.3875 150.194 83.4018 150.178 83.4197C140.153 93.5338 130.34 91.796 130.34 91.796C116.532 91.2428 116.158 78.958 116.188 77.0278C116.188 76.9015 116.297 76.8534 116.417 76.8835C145.712 84.9952 152.694 77.0158 154.958 76.7151C155 76.7117 155.042 76.7249 155.074 76.7519C155.107 76.7788 155.128 76.8174 155.133 76.8594C157.01 86.8833 165.622 85.374 167.426 84.9471C167.565 84.911 167.571 84.7486 167.462 84.6524C164.728 82.0247 166.159 76.9617 166.249 76.7512ZM143.056 60.4016H117.854C117.827 60.3996 117.802 60.3915 117.779 60.378C117.757 60.3644 117.738 60.3458 117.724 60.3236C117.71 60.3014 117.701 60.2762 117.698 60.2501C117.696 60.2239 117.699 60.1976 117.709 60.1731C118.542 58.321 124.347 46.2227 134.004 45.1403C134.155 45.1403 146.846 44.2444 143.207 60.2573C143.2 60.2939 143.182 60.3275 143.155 60.3533C143.128 60.3792 143.093 60.396 143.056 60.4016V60.4016Z" fill="#FF005C"/>
<path d="M253.451 55.098C253.451 55.098 257.325 36.6017 236.305 27.8767L236.172 27.8286C234.7 27.3957 209.256 20.2221 192.303 38.4357C192.303 38.4357 185.984 45.6515 186.938 52.6928C187.795 59.0005 207.01 53.9736 211.078 52.8311C211.297 52.7694 211.494 52.6494 211.65 52.4841C211.805 52.3188 211.912 52.1145 211.959 51.8931C212.412 49.7644 214.373 43.6731 221.875 43.6611C221.875 43.6611 236.963 43.6611 227.91 58.6638C227.797 58.8613 227.629 59.0226 227.427 59.1291C227.225 59.2355 226.997 59.2827 226.769 59.2651C221.507 58.9524 189.762 57.8039 181.754 74.9473C181.754 74.9473 173.16 92.8182 185.375 103.395C185.375 103.395 201.838 119.348 221.018 103.395C221.195 103.247 221.411 103.151 221.64 103.119C221.869 103.086 222.103 103.118 222.315 103.21C222.527 103.303 222.709 103.452 222.84 103.642C222.971 103.832 223.047 104.055 223.058 104.285C223.087 105.608 223.306 106.921 223.71 108.182C223.802 108.414 223.963 108.613 224.171 108.752C224.378 108.892 224.624 108.965 224.874 108.963H247.072C247.396 108.965 247.709 108.84 247.942 108.616C248.175 108.391 248.311 108.084 248.321 107.761V107.761C248.331 107.602 248.31 107.443 248.26 107.292C247.916 106.312 246.583 102.151 246.897 98.0917C246.897 98.0556 246.897 98.0135 246.897 97.9774L253.451 55.098ZM223.414 86.0775C222.503 87.2802 218.043 92.5837 210.269 92.5296H210.173C209.334 92.4755 198.103 91.4653 209.352 76.2281C209.381 76.1873 209.413 76.1491 209.449 76.1138C209.907 75.6268 213.54 72.2233 224.627 72.6683C224.809 72.6722 224.988 72.7155 225.151 72.7952C225.315 72.8749 225.459 72.989 225.574 73.1298C225.689 73.2705 225.771 73.4344 225.816 73.6101C225.861 73.7859 225.867 73.9692 225.834 74.1475L223.661 85.5724C223.617 85.757 223.533 85.9295 223.414 86.0775V86.0775Z" fill="#FFFBFD"/>
<path d="M268.629 107.622L280.554 57.9302H264.966C264.966 57.9302 262.552 48.7121 268.623 42.0316H284.362L289.251 21.6772C289.251 21.6772 298.835 3.4816 329.191 13.3852C329.191 13.3852 332.842 26.2171 324.556 30.8232C323.476 31.4245 309.686 28.009 308.901 42.2481H319.885C319.885 42.2481 325.618 52.2959 315.172 57.6837H306.047L295.6 107.635L268.629 107.622Z" fill="#FFFBFD"/>
</g>
<defs>
<clipPath id="clip0">
<rect width="330" height="112" fill="white"/>
</clipPath>
</defs>
</svg>
