<svg id="Camada_1" data-name="Camada 1" xmlns="http://www.w3.org/2000/svg" xmlns:xlink="http://www.w3.org/1999/xlink" viewBox="0 0 46.27 35.12"><defs><style>.cls-1{fill:#ff005c;}.cls-2,.cls-3,.cls-4,.cls-5,.cls-6,.cls-7,.cls-8{fill:none;stroke-miterlimit:10;}.cls-2{stroke-width:3.5px;stroke:url(#Gradiente_sem_nome_8);}.cls-3{stroke-width:1.75px;stroke:url(#Gradiente_sem_nome_2);}.cls-4,.cls-5,.cls-6,.cls-7,.cls-8{stroke-width:0.5px;}.cls-4{stroke:url(#Gradiente_sem_nome_3);}.cls-5{stroke:url(#Gradiente_sem_nome_4);}.cls-6{stroke:url(#Gradiente_sem_nome_5);}.cls-7{stroke:url(#Gradiente_sem_nome_6);}.cls-8{stroke:url(#Gradiente_sem_nome_7);}</style><linearGradient id="Gradiente_sem_nome_8" x1="443.5" y1="121.53" x2="636.83" y2="-71.8" gradientTransform="matrix(0.18, 0, 0, -0.18, -75.73, 28.45)" gradientUnits="userSpaceOnUse"><stop offset="0" stop-color="#9d69d0"/><stop offset="1" stop-color="#ff005c"/></linearGradient><linearGradient id="Gradiente_sem_nome_2" x1="452.34" y1="125.65" x2="637.3" y2="-65.88" gradientTransform="matrix(0.18, 0, 0, -0.18, -75.73, 28.45)" gradientUnits="userSpaceOnUse"><stop offset="0" stop-color="#9d69d0"/><stop offset="1" stop-color="#fe015d"/></linearGradient><linearGradient id="Gradiente_sem_nome_3" x1="527.93" y1="16" x2="571.75" y2="16" gradientTransform="matrix(0.18, 0, 0, -0.18, -75.73, 28.45)" gradientUnits="userSpaceOnUse"><stop offset="0" stop-color="#ca399b"/><stop offset="1" stop-color="#dc2686"/></linearGradient><linearGradient id="Gradiente_sem_nome_4" x1="487.88" y1="41.64" x2="526.55" y2="41.64" gradientTransform="matrix(0.18, 0, 0, -0.18, -75.73, 28.45)" gradientUnits="userSpaceOnUse"><stop offset="0" stop-color="#b64fb2"/><stop offset="1" stop-color="#c93a9c"/></linearGradient><linearGradient id="Gradiente_sem_nome_5" x1="561.46" y1="39.08" x2="589.23" y2="39.08" gradientTransform="matrix(0.18, 0, 0, -0.18, -75.73, 28.45)" gradientUnits="userSpaceOnUse"><stop offset="0" stop-color="#d42e8f"/><stop offset="1" stop-color="#e41d7c"/></linearGradient><linearGradient id="Gradiente_sem_nome_6" x1="553.33" y1="-15.32" x2="617.03" y2="-15.32" gradientTransform="matrix(0.18, 0, 0, -0.18, -75.73, 28.45)" gradientUnits="userSpaceOnUse"><stop offset="0" stop-color="#e51c7a"/><stop offset="1" stop-color="#f0106e"/></linearGradient><linearGradient id="Gradiente_sem_nome_7" x1="517.95" y1="52.07" x2="543.64" y2="52.07" gradientTransform="matrix(0.18, 0, 0, -0.18, -75.73, 28.45)" gradientUnits="userSpaceOnUse"><stop offset="0" stop-color="#c142a5"/><stop offset="1" stop-color="#cf3394"/></linearGradient></defs><path class="cls-1" d="M38.57,40.05c.92,1,3.13,2.69,7.76,2.52a.61.61,0,0,0,.28-1.17c-1.32-.58-2.7-1.44-2.92-2.58a.71.71,0,0,0-.86-.48L39,39.08A.59.59,0,0,0,38.57,40.05Z" transform="translate(-0.74 -7.46)"/><path class="cls-2" d="M2.49,9.64C2.6,15.3,4.94,45.91,42.67,38.86a.43.43,0,0,0,.33-.32c.68-2.8,5.44-26.67-28.38-26.28-5.71.21-8.72-.88-11.45-3a.43.43,0,0,0-.59.07A.44.44,0,0,0,2.49,9.64Z" transform="translate(-0.74 -7.46)"/><path class="cls-3" d="M3,9.43s-.15,0,0,.3c8.53,14,35.17,7.87,39.67,28.6" transform="translate(-0.74 -7.46)"/><path class="cls-4" d="M28.6,23.07s.27,5.62-8,4.79" transform="translate(-0.74 -7.46)"/><path class="cls-5" d="M20.35,20.17s-.86,2.86-7,.19" transform="translate(-0.74 -7.46)"/><path class="cls-6" d="M31.72,24.49s1-4.85-4.95-6.31" transform="translate(-0.74 -7.46)"/><path class="cls-7" d="M36.86,28S36.71,34,25.28,34.5" transform="translate(-0.74 -7.46)"/><path class="cls-8" d="M23.46,21.22s-.05-3.72-4.63-4.51" transform="translate(-0.74 -7.46)"/></svg>